<?xml version="1.0" encoding="UTF-8"?>
<svg xmlns="http://www.w3.org/2000/svg" xmlns:xlink="http://www.w3.org/1999/xlink" width="249pt" height="102pt" viewBox="0 0 249 102" version="1.1">
<g id="surface1">
<path style=" stroke:none;fill-rule:nonzero;fill:rgb(0.392157%,56.470588%,100%);fill-opacity:1;" d="M 4.851562 40.808594 C 7.789062 30.0625 20.027344 27.507812 31.292969 27.191406 C 40.558594 26.929688 50.882812 28.15625 50.882812 28.15625 L 46.03125 45.902344 C 46.03125 45.902344 35.703125 44.675781 26.441406 44.9375 C 15.175781 45.253906 2.9375 47.808594 0 58.554688 Z M 4.851562 40.808594 "/>
<path style=" stroke:none;fill-rule:nonzero;fill:rgb(16.862745%,0.392157%,74.509804%);fill-opacity:1;" d="M 108.324219 32.054688 L 96.855469 73.992188 L 106.492188 73.992188 L 110.738281 58.460938 L 119.109375 58.460938 C 128.347656 58.460938 134.476562 53.363281 136.132812 46.273438 C 137.679688 39.65625 133.816406 32.054688 123.46875 32.054688 C 118.417969 32.054688 113.371094 32.054688 108.324219 32.054688 Z M 116.609375 36.988281 L 120.316406 36.988281 C 124.195312 36.988281 127.273438 40.09375 126.53125 45.5 C 125.839844 50.511719 120.402344 53.515625 115.660156 53.515625 L 112.09375 53.515625 Z M 116.609375 36.988281 "/>
<path style=" stroke:none;fill-rule:nonzero;fill:rgb(16.862745%,0.392157%,74.509804%);fill-opacity:1;" d="M 207.996094 45.109375 C 199.894531 45.109375 194.046875 52.082031 192.644531 59.050781 C 191.296875 65.75 195.136719 74.648438 205.707031 74.648438 C 213.21875 74.648438 216.996094 71.339844 216.996094 71.339844 L 215.265625 67.070312 C 215.265625 67.070312 212.109375 69.640625 207.707031 69.640625 C 203.308594 69.640625 200.546875 66.167969 201.15625 60.628906 L 219.128906 60.628906 C 220.410156 57.367188 221.113281 45.109375 207.996094 45.109375 Z M 207.960938 49.738281 C 212.988281 49.738281 211.84375 56.378906 211.84375 56.378906 L 201.773438 56.355469 C 201.773438 56.355469 203.445312 49.738281 207.960938 49.738281 Z M 207.960938 49.738281 "/>
<path style=" stroke:none;fill-rule:nonzero;fill:rgb(16.862745%,0.392157%,74.509804%);fill-opacity:1;" d="M 140 44.050781 L 124.15625 101.988281 L 133.402344 101.988281 L 147.449219 50.617188 L 157.050781 50.617188 L 150.660156 73.992188 L 159.902344 73.992188 L 167.566406 45.960938 L 148.722656 45.960938 C 149.6875 42.425781 150.71875 38.664062 151.558594 35.59375 C 153.109375 29.925781 155.640625 25.808594 159.320312 25.945312 C 163.390625 26.101562 161.320312 28.773438 160.761719 30.8125 C 159.992188 33.628906 162.074219 36.464844 165.71875 36.464844 C 173.640625 36.464844 175.59375 21.914062 160.761719 21.914062 C 145.929688 21.914062 142.128906 36.277344 140 44.050781 Z M 140 44.050781 "/>
<path style=" stroke:none;fill-rule:nonzero;fill:rgb(16.862745%,0.392157%,74.509804%);fill-opacity:1;" d="M 171.050781 45.960938 L 169.777344 50.617188 L 181.492188 50.617188 L 163.074219 73.992188 L 189.085938 73.992188 L 190.359375 69.335938 L 177.140625 69.335938 L 195.5625 45.960938 Z M 171.050781 45.960938 "/>
<path style=" stroke:none;fill-rule:nonzero;fill:rgb(16.862745%,0.392157%,74.509804%);fill-opacity:1;" d="M 243.816406 45.488281 C 237.789062 45.488281 234.234375 51.714844 234.234375 51.714844 L 235.808594 45.960938 L 226.5625 45.960938 L 218.898438 73.992188 L 228.140625 73.992188 C 228.140625 73.992188 230.367188 65.800781 231.5 61.714844 C 233.25 55.320312 236.816406 51.320312 238.53125 51.15625 C 240.511719 50.964844 240.324219 55.742188 244.1875 55.742188 C 250.050781 55.742188 251.316406 45.488281 243.816406 45.488281 Z M 243.816406 45.488281 "/>
<path style=" stroke:none;fill-rule:nonzero;fill:rgb(16.862745%,0.392157%,74.509804%);fill-opacity:1;" d="M 75.164062 74.058594 C 42.015625 71.992188 3.492188 54.886719 4.851562 40.808594 L 0.277344 57.535156 C -1.109375 71.898438 34.625 88.949219 70.3125 91.804688 Z M 75.164062 74.058594 "/>
<path style=" stroke:none;fill-rule:nonzero;fill:rgb(16.862745%,0.392157%,74.509804%);fill-opacity:1;" d="M 87.210938 50.996094 C 84.273438 61.742188 72.035156 64.296875 60.769531 64.613281 C 51.507812 64.875 41.179688 63.648438 41.179688 63.648438 L 46.03125 45.902344 C 46.03125 45.902344 56.359375 47.128906 65.621094 46.867188 C 76.886719 46.550781 89.125 43.996094 92.0625 33.25 Z M 87.210938 50.996094 "/>
<path style=" stroke:none;fill-rule:nonzero;fill:rgb(0.392157%,56.470588%,100%);fill-opacity:1;" d="M 16.898438 17.746094 C 50.046875 19.8125 88.570312 36.917969 87.210938 50.996094 L 91.785156 34.269531 C 93.171875 19.90625 57.4375 2.855469 21.75 0 Z M 16.898438 17.746094 "/>
<path style=" stroke:none;fill-rule:nonzero;fill:rgb(0.392157%,56.470588%,100%);fill-opacity:1;" d="M 4.851562 40.808594 C 7.789062 30.0625 20.027344 27.507812 31.292969 27.191406 C 40.558594 26.929688 50.882812 28.15625 50.882812 28.15625 L 46.03125 45.902344 C 46.03125 45.902344 35.703125 44.675781 26.441406 44.9375 C 15.175781 45.253906 2.9375 47.808594 0 58.554688 Z M 4.851562 40.808594 "/>
<path style=" stroke:none;fill-rule:nonzero;fill:rgb(16.862745%,0.392157%,74.509804%);fill-opacity:1;" d="M 75.164062 74.058594 C 42.015625 71.992188 3.492188 54.886719 4.851562 40.808594 L 0.277344 57.535156 C -1.109375 71.898438 34.625 88.949219 70.3125 91.804688 Z M 75.164062 74.058594 "/>
<path style=" stroke:none;fill-rule:nonzero;fill:rgb(16.862745%,0.392157%,74.509804%);fill-opacity:1;" d="M 87.210938 50.996094 C 84.273438 61.742188 72.035156 64.296875 60.769531 64.613281 C 51.507812 64.875 41.179688 63.648438 41.179688 63.648438 L 46.03125 45.902344 C 46.03125 45.902344 56.359375 47.128906 65.621094 46.867188 C 76.886719 46.550781 89.125 43.996094 92.0625 33.25 Z M 87.210938 50.996094 "/>
<path style=" stroke:none;fill-rule:nonzero;fill:rgb(0.392157%,56.470588%,100%);fill-opacity:1;" d="M 16.898438 17.746094 C 50.046875 19.8125 88.570312 36.917969 87.210938 50.996094 L 91.785156 34.269531 C 93.171875 19.90625 57.4375 2.855469 21.75 0 Z M 16.898438 17.746094 "/>
</g>
</svg>
